HIERARCHY
ROOT hip
{
  OFFSET -0.570224 89.8853 2.43558
  CHANNELS 6 Xposition Yposition Zposition Zrotation Xrotation Yrotation
  JOINT abdomen
  {
    OFFSET 0 7.2397 0
    CHANNELS 6 Xposition Yposition Zposition Zrotation Xrotation Yrotation
    JOINT chest
    {
      OFFSET 0 16.546 0
      CHANNELS 6 Xposition Yposition Zposition Zrotation Xrotation Yrotation
      JOINT neck
      {
        OFFSET 0 34.2149 0
        CHANNELS 6 Xposition Yposition Zposition Zrotation Xrotation Yrotation
        JOINT head
        {
          OFFSET 0 6.2923 0
          CHANNELS 6 Xposition Yposition Zposition Zrotation Xrotation Yrotation
          End Site
          {
            OFFSET 0 21.2161 0
          }
        }
      }
      JOINT lCollar
      {
        OFFSET 4.0639 26.6115 -1.1234
        CHANNELS 6 Xposition Yposition Zposition Zrotation Xrotation Yrotation
        JOINT lShldr
        {
          OFFSET 14.1772 0 0
          CHANNELS 6 Xposition Yposition Zposition Zrotation Xrotation Yrotation
          JOINT lForeArm
          {
            OFFSET 26.1234 0 0
            CHANNELS 6 Xposition Yposition Zposition Zrotation Xrotation Yrotation
            JOINT lHand
            {
              OFFSET 27.7188 0 0
              CHANNELS 6 Xposition Yposition Zposition Zrotation Xrotation Yrotation
              JOINT lThumb1
              {
                OFFSET 2.2979 -0.4685 1.8313
                CHANNELS 6 Xposition Yposition Zposition Zrotation Xrotation Yrotation
                JOINT lThumb2
                {
                  OFFSET 5.2953 0 0
                  CHANNELS 6 Xposition Yposition Zposition Zrotation Xrotation Yrotation
                  JOINT lThumb3
                  {
                    OFFSET 3.0181 0 0
                    CHANNELS 6 Xposition Yposition Zposition Zrotation Xrotation Yrotation
                    End Site
                    {
                      OFFSET 2.6294 0 0
                    }
                  }
                }
              }
              JOINT lIndex1
              {
                OFFSET 9.3793 0.2991 2.5924
                CHANNELS 6 Xposition Yposition Zposition Zrotation Xrotation Yrotation
                JOINT lIndex2
                {
                  OFFSET 4.3461 0 0
                  CHANNELS 6 Xposition Yposition Zposition Zrotation Xrotation Yrotation
                  JOINT lIndex3
                  {
                    OFFSET 2.1666 0 0
                    CHANNELS 6 Xposition Yposition Zposition Zrotation Xrotation Yrotation
                    End Site
                    {
                      OFFSET 2.2048 0 0
                    }
                  }
                }
              }
              JOINT lMid1
              {
                OFFSET 9.4769 0.8376 0.2947
                CHANNELS 6 Xposition Yposition Zposition Zrotation Xrotation Yrotation
                JOINT lMid2
                {
                  OFFSET 4.772 0 0
                  CHANNELS 6 Xposition Yposition Zposition Zrotation Xrotation Yrotation
                  JOINT lMid3
                  {
                    OFFSET 2.8722 0 0
                    CHANNELS 6 Xposition Yposition Zposition Zrotation Xrotation Yrotation
                    End Site
                    {
                      OFFSET 2.0959 0 0
                    }
                  }
                }
              }
              JOINT lRing1
              {
                OFFSET 8.6586 1.0176 -1.7016
                CHANNELS 6 Xposition Yposition Zposition Zrotation Xrotation Yrotation
                JOINT lRing2
                {
                  OFFSET 4.5461 0 0
                  CHANNELS 6 Xposition Yposition Zposition Zrotation Xrotation Yrotation
                  JOINT lRing3
                  {
                    OFFSET 2.506 0 0
                    CHANNELS 6 Xposition Yposition Zposition Zrotation Xrotation Yrotation
                    End Site
                    {
                      OFFSET 2.2023 0 0
                    }
                  }
                }
              }
              JOINT lPinky1
              {
                OFFSET 7.6901 0.6618 -3.9096
                CHANNELS 6 Xposition Yposition Zposition Zrotation Xrotation Yrotation
                JOINT lPinky2
                {
                  OFFSET 3.2119 0 0
                  CHANNELS 6 Xposition Yposition Zposition Zrotation Xrotation Yrotation
                  JOINT lPinky3
                  {
                    OFFSET 1.924 0 0
                    CHANNELS 6 Xposition Yposition Zposition Zrotation Xrotation Yrotation
                    End Site
                    {
                      OFFSET 1.7829 0 0
                    }
                  }
                }
              }
            }
          }
        }
      }
      JOINT rCollar
      {
        OFFSET -4.0677 26.6109 -1.1234
        CHANNELS 6 Xposition Yposition Zposition Zrotation Xrotation Yrotation
        JOINT rShldr
        {
          OFFSET -14.1772 0 0
          CHANNELS 6 Xposition Yposition Zposition Zrotation Xrotation Yrotation
          JOINT rForeArm
          {
            OFFSET -26.1234 0 0
            CHANNELS 6 Xposition Yposition Zposition Zrotation Xrotation Yrotation
            JOINT rHand
            {
              OFFSET -27.7188 0 0
              CHANNELS 6 Xposition Yposition Zposition Zrotation Xrotation Yrotation
              JOINT rThumb1
              {
                OFFSET -2.2979 -0.4684 1.8313
                CHANNELS 6 Xposition Yposition Zposition Zrotation Xrotation Yrotation
                JOINT rThumb2
                {
                  OFFSET -5.2953 0 0
                  CHANNELS 6 Xposition Yposition Zposition Zrotation Xrotation Yrotation
                  JOINT rThumb3
                  {
                    OFFSET -3.0181 0 0
                    CHANNELS 6 Xposition Yposition Zposition Zrotation Xrotation Yrotation
                    End Site
                    {
                      OFFSET -2.6294 0 0
                    }
                  }
                }
              }
              JOINT rIndex1
              {
                OFFSET -9.3793 0.2991 2.5924
                CHANNELS 6 Xposition Yposition Zposition Zrotation Xrotation Yrotation
                JOINT rIndex2
                {
                  OFFSET -4.3461 0 0
                  CHANNELS 6 Xposition Yposition Zposition Zrotation Xrotation Yrotation
                  JOINT rIndex3
                  {
                    OFFSET -2.1666 0 0
                    CHANNELS 6 Xposition Yposition Zposition Zrotation Xrotation Yrotation
                    End Site
                    {
                      OFFSET -2.2048 0 0
                    }
                  }
                }
              }
              JOINT rMid1
              {
                OFFSET -9.4769 0.8376 0.2947
                CHANNELS 6 Xposition Yposition Zposition Zrotation Xrotation Yrotation
                JOINT rMid2
                {
                  OFFSET -4.772 0 0
                  CHANNELS 6 Xposition Yposition Zposition Zrotation Xrotation Yrotation
                  JOINT rMid3
                  {
                    OFFSET -2.8722 0 0
                    CHANNELS 6 Xposition Yposition Zposition Zrotation Xrotation Yrotation
                    End Site
                    {
                      OFFSET -2.0959 0 0
                    }
                  }
                }
              }
              JOINT rRing1
              {
                OFFSET -8.6586 1.0176 -1.7016
                CHANNELS 6 Xposition Yposition Zposition Zrotation Xrotation Yrotation
                JOINT rRing2
                {
                  OFFSET -4.5461 0 0
                  CHANNELS 6 Xposition Yposition Zposition Zrotation Xrotation Yrotation
                  JOINT rRing3
                  {
                    OFFSET -2.506 0 0
                    CHANNELS 6 Xposition Yposition Zposition Zrotation Xrotation Yrotation
                    End Site
                    {
                      OFFSET -2.2023 0 0
                    }
                  }
                }
              }
              JOINT rPinky1
              {
                OFFSET -7.6901 0.6618 -3.9096
                CHANNELS 6 Xposition Yposition Zposition Zrotation Xrotation Yrotation
                JOINT rPinky2
                {
                  OFFSET -3.2119 0 0
                  CHANNELS 6 Xposition Yposition Zposition Zrotation Xrotation Yrotation
                  JOINT rPinky3
                  {
                    OFFSET -1.924 0 0
                    CHANNELS 6 Xposition Yposition Zposition Zrotation Xrotation Yrotation
                    End Site
                    {
                      OFFSET -1.7829 0 0
                    }
                  }
                }
              }
            }
          }
        }
      }
    }
  }
  JOINT lThigh
  {
    OFFSET 8.7379 -0.0029 0.0005
    CHANNELS 6 Xposition Yposition Zposition Zrotation Xrotation Yrotation
    JOINT lShin
    {
      OFFSET 0 -46.6676 0
      CHANNELS 6 Xposition Yposition Zposition Zrotation Xrotation Yrotation
      JOINT lFoot
      {
        OFFSET 0 -40.1476 0
        CHANNELS 6 Xposition Yposition Zposition Zrotation Xrotation Yrotation
        JOINT lToes
        {
          OFFSET 0 -8.8846 14.2294
          CHANNELS 6 Xposition Yposition Zposition Zrotation Xrotation Yrotation
          End Site
          {
            OFFSET 0 0 6.296
          }
        }
      }
    }
  }
  JOINT rThigh
  {
    OFFSET -8.7379 0.0029 -0.0005
    CHANNELS 6 Xposition Yposition Zposition Zrotation Xrotation Yrotation
    JOINT rShin
    {
      OFFSET 0 -46.6676 0
      CHANNELS 6 Xposition Yposition Zposition Zrotation Xrotation Yrotation
      JOINT rFoot
      {
        OFFSET 0 -40.1476 0
        CHANNELS 6 Xposition Yposition Zposition Zrotation Xrotation Yrotation
        JOINT rToes
        {
          OFFSET 0 -8.8846 14.2294
          CHANNELS 6 Xposition Yposition Zposition Zrotation Xrotation Yrotation
          End Site
          {
            OFFSET 0 0 6.296
          }
        }
      }
    }
  }
}
MOTION
Frames:	4
Frame Time:	0.0333333
-0.570224 89.8853 2.43558 -3.48614 -10.4367 -17.3712 5.55112e-17 7.2397 0 -1.36768 -0.280207 -6.02949 5.55112e-17 16.546 -3.55271e-15 -3.31066 1.50053 -11.7879 8.88178e-16 34.2149 -3.55271e-15 -0.527437 34.4753 6.5588 -4.44089e-16 6.2923 1.42109e-14 -5.12523 -23.2295 30.8205 4.0639 26.6115 -1.1234 -3.42282 -3.58795 1.41361 14.1772 -2.84217e-14 -3.55271e-15 -65.6072 20.6538 -60.2938 26.1234 0 0 -0.852043 0.986243 -98.347 27.7188 -1.42109e-14 3.55271e-15 -6.45134 8.8031 -16.8468 2.2979 -0.4685 1.8313 41.7977 57.0324 -96.4075 5.2953 -7.10543e-15 2.84217e-14 -30.6168 -8.54011 10.6803 3.0181 0 0 -8.14209 -6.6282 11.1173 9.3793 0.2991 2.5924 -34.239 -2.82476 0.0609201 4.3461 0 0 -61.0696 -6.48996 11.4433 2.1666 0 0 -19.6136 -0.729455 3.78989 9.4769 0.8376 0.2947 -24.7017 -4.79115 9.00267 4.772 2.84217e-14 -8.88178e-16 -59.139 -7.79151 13.8442 2.8722 -5.68434e-14 -8.88178e-16 -42.9585 -4.18424 12.3769 8.6586 1.0176 -1.7016 -41.2585 0.238105 7.34321 4.5461 -2.84217e-14 3.55271e-15 -50.6434 -3.28547 6.93687 2.506 0 0 -24.2642 -0.729077 4.73307 7.6901 0.6618 -3.9096 -51.4312 -12.6224 7.63102 3.2119 0 -1.77636e-15 -51.4428 -4.645 13.8674 1.924 0 0 -72.3509 -15.018 22.1401 -4.0677 26.6109 -1.1234 3.96658 -4.37572 -0.536795 -14.1772 0 -3.55271e-15 60.4408 12.5789 49.1927 -26.1234 0 1.42109e-14 0.813164 1.14442 109.21 -27.7188 -1.42109e-14 -3.55271e-15 -26.7555 9.33449 34.4365 -2.2979 -0.4684 1.8313 34.9222 26.2487 25.1597 -5.2953 -7.10543e-15 0 -9.47822 -18.15 -41.0367 -3.0181 0 7.10543e-15 -4.77459 -6.64277 -45.9008 -9.3793 0.2991 2.5924 1.76019 -0.760174 16.7436 -4.3461 0 -1.42109e-14 82.9787 -11.3023 -13.0739 -2.1666 0 1.42109e-14 32.4204 -1.99003 -6.38552 -9.4769 0.8376 0.2947 45.7242 -6.84078 3.40921 -4.772 0 1.42109e-14 87.2742 -15.4094 -16.2419 -2.8722 0 -1.42109e-14 44.7843 -4.46775 -12.7933 -8.6586 1.0176 -1.7016 52.1685 -1.12006 3.15584 -4.5461 -1.42109e-14 0 80.3111 -7.53541 -8.92568 -2.506 0 0 47.932 -2.94346 -7.7734 -7.6901 0.6618 -3.9096 66.3573 -14.1302 8.75982 -3.2119 0 -7.10543e-15 38.6774 -4.70149 -13.3432 -1.924 0 0 39.9368 -4.93887 -15.3353 8.7379 -0.0029 0.0005 18.8636 -4.06995 27.0677 -3.55271e-15 -46.6676 0 6.65237 42.0202 6.98686 0 -40.1476 -1.77636e-15 -17.8277 -16.4517 10.2401 0 -8.8846 14.2294 0.0001 4.96962e-17 -3.18055e-15 -8.7379 0.0029 -0.0005 -16.6577 -4.87184 -24.6378 -3.55271e-15 -46.6676 0 -15.6674 35.8145 16.7857 -3.55271e-15 -40.1476 -8.88178e-16 15.9898 -18.6964 4.00928 -3.55271e-15 -8.8846 14.2294 3.97569e-16 7.95139e-16 -9.54166e-15 
-0.606316 89.826 2.50471 -3.40368 -10.4135 -17.2474 5.55112e-17 7.2397 3.55271e-15 -1.36509 -0.27441 -6.01767 -1.66533e-16 16.546 -3.55271e-15 -3.29882 1.51115 -11.7666 1.33227e-15 34.2149 0 -0.548443 34.4465 6.58603 0 6.2923 -1.42109e-14 -5.31029 -23.2231 30.8742 4.0639 26.6115 -1.1234 -3.41085 -3.5915 1.43161 14.1772 2.84217e-14 3.55271e-15 -65.3897 20.505 -60.4937 26.1234 1.42109e-14 1.42109e-14 -0.851684 0.989351 -98.5555 27.7188 0 -3.55271e-15 -6.66343 8.45723 -16.2358 2.2979 -0.4685 1.8313 41.7977 57.0324 -96.4075 5.2953 0 -2.84217e-14 -30.6168 -8.54011 10.6803 3.0181 1.77636e-15 -5.68434e-14 -8.14209 -6.6282 11.1173 9.3793 0.2991 2.5924 -34.239 -2.82476 0.0609201 4.3461 0 0 -61.0696 -6.48996 11.4433 2.1666 0 3.55271e-15 -19.6136 -0.729455 3.78989 9.4769 0.8376 0.2947 -24.7017 -4.79115 9.00267 4.772 0 -8.88178e-16 -59.139 -7.79151 13.8442 2.8722 0 1.77636e-15 -42.9585 -4.18424 12.3769 8.6586 1.0176 -1.7016 -41.2585 0.238105 7.34321 4.5461 -2.84217e-14 0 -50.6434 -3.28547 6.93687 2.506 0 0 -24.2642 -0.729077 4.73307 7.6901 0.6618 -3.9096 -51.4312 -12.6224 7.63102 3.2119 2.84217e-14 0 -51.4428 -4.645 13.8674 1.924 0 0 -72.3509 -15.018 22.1401 -4.0677 26.6109 -1.1234 3.98438 -4.37744 -0.547091 -14.1772 0 -7.10543e-15 60.4376 12.6839 49.2965 -26.1234 -1.42109e-14 0 0.812183 1.14734 109.419 -27.7188 0 -1.77636e-15 -27.0268 9.4558 33.9506 -2.2979 -0.4684 1.8313 34.9222 26.2487 25.1597 -5.2953 0 0 -9.47822 -18.15 -41.0367 -3.0181 0 0 -4.77459 -6.64277 -45.9008 -9.3793 0.2991 2.5924 1.76019 -0.760174 16.7436 -4.3461 -3.55271e-15 1.42109e-14 82.9787 -11.3023 -13.0739 -2.1666 -2.84217e-14 1.42109e-14 32.4204 -1.99003 -6.38552 -9.4769 0.8376 0.2947 45.7242 -6.84078 3.40921 -4.772 -1.42109e-14 0 87.2742 -15.4094 -16.2419 -2.8722 -1.42109e-14 0 44.7843 -4.46775 -12.7933 -8.6586 1.0176 -1.7016 52.1685 -1.12006 3.15584 -4.5461 0 1.42109e-14 80.3111 -7.53541 -8.92568 -2.506 1.42109e-14 -1.42109e-14 47.932 -2.94346 -7.7734 -7.6901 0.6618 -3.9096 66.3573 -14.1302 8.75982 -3.2119 2.84217e-14 -7.10543e-15 38.6774 -4.70149 -13.3432 -1.924 2.84217e-14 -7.10543e-15 39.9368 -4.93887 -15.3353 8.7379 -0.0029 0.0005 18.8583 -4.16646 27.1065 0 -46.6676 0 6.73204 42.1742 6.82634 0 -40.1476 0 -17.875 -16.5563 10.1784 3.55271e-15 -8.8846 14.2294 0.0001 -4.96962e-17 -3.18055e-15 -8.7379 0.0029 -0.0005 -16.6849 -4.93885 -24.5228 -3.55271e-15 -46.6676 0 -15.7931 36.0503 16.6013 0 -40.1476 -2.66454e-15 16.1418 -18.867 4.11009 3.55271e-15 -8.8846 14.2294 -0 0 9.54166e-15 
-0.636264 89.6533 2.52854 -3.29698 -10.393 -16.9413 5.55112e-17 7.2397 7.10543e-15 -1.34888 -0.240651 -5.97874 0 16.546 -3.55271e-15 -3.25581 1.57508 -11.6929 -4.44089e-16 34.2149 0 -0.575768 34.3961 6.63054 4.44089e-16 6.2923 -1.42109e-14 -5.61842 -23.2577 30.973 4.0639 26.6115 -1.1234 -3.38356 -3.59606 1.43988 14.1772 -2.84217e-14 -3.55271e-15 -64.8451 20.252 -60.9126 26.1234 -1.42109e-14 1.42109e-14 -0.850943 0.993597 -98.8421 27.7188 0 3.55271e-15 -6.66951 7.90377 -15.5731 2.2979 -0.4685 1.8313 41.7977 57.0324 -96.4075 5.2953 -7.10543e-15 0 -30.6168 -8.54011 10.6803 3.0181 0 2.84217e-14 -8.14209 -6.6282 11.1173 9.3793 0.2991 2.5924 -34.239 -2.82476 0.0609201 4.3461 0 3.55271e-15 -61.0696 -6.48996 11.4433 2.1666 2.84217e-14 3.55271e-15 -19.6136 -0.729455 3.78989 9.4769 0.8376 0.2947 -24.7017 -4.79115 9.00267 4.772 0 1.77636e-15 -59.139 -7.79151 13.8442 2.8722 0 0 -42.9585 -4.18424 12.3769 8.6586 1.0176 -1.7016 -41.2585 0.238105 7.34321 4.5461 0 -3.55271e-15 -50.6434 -3.28547 6.93687 2.506 0 0 -24.2642 -0.729077 4.73307 7.6901 0.6618 -3.9096 -51.4312 -12.6224 7.63102 3.2119 0 3.55271e-15 -51.4428 -4.645 13.8674 1.924 0 0 -72.3509 -15.018 22.1401 -4.0677 26.6109 -1.1234 4.0128 -4.38006 -0.562861 -14.1772 0 -3.55271e-15 60.4497 12.7396 49.4542 -26.1234 -1.42109e-14 -1.42109e-14 0.81041 1.15227 109.766 -27.7188 0 -3.55271e-15 -27.284 9.67746 33.3704 -2.2979 -0.4684 1.8313 34.9222 26.2487 25.1597 -5.2953 -7.10543e-15 2.84217e-14 -9.47822 -18.15 -41.0367 -3.0181 0 0 -4.77459 -6.64277 -45.9008 -9.3793 0.2991 2.5924 1.76019 -0.760174 16.7436 -4.3461 0 -1.42109e-14 82.9787 -11.3023 -13.0739 -2.1666 2.84217e-14 -1.42109e-14 32.4204 -1.99003 -6.38552 -9.4769 0.8376 0.2947 45.7242 -6.84078 3.40921 -4.772 0 0 87.2742 -15.4094 -16.2419 -2.8722 1.42109e-14 -1.42109e-14 44.7843 -4.46775 -12.7933 -8.6586 1.0176 -1.7016 52.1685 -1.12006 3.15584 -4.5461 1.42109e-14 -1.42109e-14 80.3111 -7.53541 -8.92568 -2.506 -1.42109e-14 1.42109e-14 47.932 -2.94346 -7.7734 -7.6901 0.6618 -3.9096 66.3573 -14.1302 8.75982 -3.2119 -2.84217e-14 7.10543e-15 38.6774 -4.70149 -13.3432 -1.924 2.84217e-14 0 39.9368 -4.93887 -15.3353 8.7379 -0.0029 0.0005 18.9516 -4.53308 27.1481 -3.55271e-15 -46.6676 7.10543e-15 6.92035 42.7379 6.48014 0 -40.1476 -3.55271e-15 -17.9435 -16.8245 10.0138 -3.55271e-15 -8.8846 14.2294 0.0001 4.96962e-17 -1.27222e-14 -8.7379 0.0029 -0.0005 -16.7671 -5.16665 -24.4104 0 -46.6676 0 -16.0599 36.7117 16.4515 0 -40.1476 8.88178e-16 16.3527 -19.2672 4.19336 -3.55271e-15 -8.8846 14.2294 9.93923e-17 -3.97569e-16 3.18055e-15 
-0.648082 89.3666 2.50467 -3.14118 -10.3615 -16.5043 5.55112e-17 7.2397 0 -1.31043 -0.179406 -5.88306 -5.55112e-17 16.546 0 -3.15789 1.68924 -11.5101 -4.44089e-16 34.2149 0 -0.671145 34.327 6.72831 -4.44089e-16 6.2923 0 -6.1164 -23.2543 31.1664 4.0639 26.6115 -1.1234 -3.34671 -3.59983 1.4291 14.1772 2.84217e-14 0 -64.1381 19.8892 -61.527 26.1234 0 -1.42109e-14 -0.850192 0.99886 -99.1945 27.7188 0 -5.32907e-15 -6.63087 7.19799 -14.8419 2.2979 -0.4685 1.8313 41.7977 57.0324 -96.4075 5.2953 7.10543e-15 2.84217e-14 -30.6168 -8.54011 10.6803 3.0181 0 0 -8.14209 -6.6282 11.1173 9.3793 0.2991 2.5924 -34.239 -2.82476 0.0609201 4.3461 0 0 -61.0696 -6.48996 11.4433 2.1666 0 3.55271e-15 -19.6136 -0.729455 3.78989 9.4769 0.8376 0.2947 -24.7017 -4.79115 9.00267 4.772 2.84217e-14 -1.77636e-15 -59.139 -7.79151 13.8442 2.8722 0 0 -42.9585 -4.18424 12.3769 8.6586 1.0176 -1.7016 -41.2585 0.238105 7.34321 4.5461 0 0 -50.6434 -3.28547 6.93687 2.506 2.84217e-14 7.10543e-15 -24.2642 -0.729077 4.73307 7.6901 0.6618 -3.9096 -51.4312 -12.6224 7.63102 3.2119 -2.84217e-14 0 -51.4428 -4.645 13.8674 1.924 -1.42109e-14 0 -72.3509 -15.018 22.1401 -4.0677 26.6109 -1.1234 4.05332 -4.38479 -0.593193 -14.1772 0 3.55271e-15 60.4459 12.7526 49.7459 -26.1234 0 -1.42109e-14 0.808028 1.15865 110.217 -27.7188 0 1.77636e-15 -27.5668 10.0239 32.6792 -2.2979 -0.4684 1.8313 34.9222 26.2487 25.1597 -5.2953 0 2.84217e-14 -9.47822 -18.15 -41.0367 -3.0181 1.42109e-14 0 -4.77459 -6.64277 -45.9008 -9.3793 0.2991 2.5924 1.76019 -0.760174 16.7436 -4.3461 -3.55271e-15 1.42109e-14 82.9787 -11.3023 -13.0739 -2.1666 0 2.84217e-14 32.4204 -1.99003 -6.38552 -9.4769 0.8376 0.2947 45.7242 -6.84078 3.40921 -4.772 2.84217e-14 -1.42109e-14 87.2742 -15.4094 -16.2419 -2.8722 0 0 44.7843 -4.46775 -12.7933 -8.6586 1.0176 -1.7016 52.1685 -1.12006 3.15584 -4.5461 0 0 80.3111 -7.53541 -8.92568 -2.506 0 0 47.932 -2.94346 -7.7734 -7.6901 0.6618 -3.9096 66.3573 -14.1302 8.75982 -3.2119 -2.84217e-14 7.10543e-15 38.6774 -4.70149 -13.3432 -1.924 0 7.10543e-15 39.9368 -4.93887 -15.3353 8.7379 -0.0029 0.0005 19.0509 -5.18214 27.1091 0 -46.6676 0 7.26357 43.6819 6.07233 -3.55271e-15 -40.1476 1.77636e-15 -18.0979 -17.2273 9.74937 -3.55271e-15 -8.8846 14.2294 0.0001 -4.96962e-17 -3.18055e-15 -8.7379 0.0029 -0.0005 -16.9733 -5.59096 -24.3586 3.55271e-15 -46.6676 -7.10543e-15 -16.4422 37.7986 16.3918 -3.55271e-15 -40.1476 -8.88178e-16 16.594 -19.8757 4.30607 0 -8.8846 14.2294 4.96962e-16 -5.96354e-16 9.54166e-15 
